HIERARCHY
ROOT Hips
{
    OFFSET 0.000000 0.000000 0.000000
    CHANNELS 6 Xposition Yposition Zposition Zrotation Xrotation Yrotation
    JOINT Spine
    {
        OFFSET -0.000000 0.076330 0.000000
        CHANNELS 3 Zrotation Xrotation Yrotation
        JOINT Spine1
        {
            OFFSET -0.000000 0.237362 0.000000
            CHANNELS 3 Zrotation Xrotation Yrotation
            JOINT Neck
            {
                OFFSET -0.000000 0.236387 0.021490
                CHANNELS 3 Zrotation Xrotation Yrotation
                JOINT Head
                {
                    OFFSET -0.000000 0.130319 -0.018617
                    CHANNELS 3 Zrotation Xrotation Yrotation
                    End Site
                    {
                        OFFSET -0.000000 0.186171 0.000000
                    }
                }
            }
            JOINT LeftShoulder
            {
                OFFSET 0.037234 0.224974 -0.001544
                CHANNELS 3 Zrotation Xrotation Yrotation
                JOINT LeftArm
                {
                    OFFSET 0.093508 0.000000 0.000000
                    CHANNELS 3 Zrotation Xrotation Yrotation
                    JOINT LeftForeArm
                    {
                        OFFSET 0.301875 0.000000 0.000000
                        CHANNELS 3 Zrotation Xrotation Yrotation
                        JOINT LeftHand
                        {
                            OFFSET 0.245701 0.000000 0.000000
                            CHANNELS 3 Zrotation Xrotation Yrotation
                            End Site
                            {
                                OFFSET 0.139628 0.000000 0.000000
                            }
                        }
                    }
                }
            }
            JOINT RightShoulder
            {
                OFFSET -0.037028 0.224974 -0.001544
                CHANNELS 3 Zrotation Xrotation Yrotation
                JOINT RightArm
                {
                    OFFSET -0.093508 0.000000 0.000000
                    CHANNELS 3 Zrotation Xrotation Yrotation
                    JOINT RightForeArm
                    {
                        OFFSET -0.301875 0.000000 0.000000
                        CHANNELS 3 Zrotation Xrotation Yrotation
                        JOINT RightHand
                        {
                            OFFSET -0.245701 0.000000 0.000000
                            CHANNELS 3 Zrotation Xrotation Yrotation
                            End Site
                            {
                                OFFSET -0.139628 0.000000 0.000000
                            }
                        }
                    }
                }
            }
        }
    }
    JOINT LeftUpLeg
    {
        OFFSET 0.093085 0.000000 0.000000
        CHANNELS 3 Zrotation Xrotation Yrotation
        JOINT LeftLeg
        {
            OFFSET -0.000000 -0.318817 0.000000
            CHANNELS 3 Zrotation Xrotation Yrotation
            JOINT LeftFoot
            {
                OFFSET -0.000000 -0.383648 0.000000
                CHANNELS 3 Zrotation Xrotation Yrotation
                JOINT LeftToeBase
                {
                    OFFSET -0.000000 -0.060505 0.139628
                    CHANNELS 3 Zrotation Xrotation Yrotation
                    End Site
                    {
                        OFFSET -0.000000 0.000000 0.037234
                    }
                }
            }
        }
    }
    JOINT RightUpLeg
    {
        OFFSET -0.093085 0.000000 0.000000
        CHANNELS 3 Zrotation Xrotation Yrotation
        JOINT RightLeg
        {
            OFFSET -0.000000 -0.318817 0.000000
            CHANNELS 3 Zrotation Xrotation Yrotation
            JOINT RightFoot
            {
                OFFSET -0.000000 -0.383648 0.000000
                CHANNELS 3 Zrotation Xrotation Yrotation
                JOINT RightToeBase
                {
                    OFFSET -0.000000 -0.060505 0.139628
                    CHANNELS 3 Zrotation Xrotation Yrotation
                    End Site
                    {
                        OFFSET -0.000000 0.000000 0.037234
                    }
                }
            }
        }
    }
}
MOTION
Frames:    9
Frame Time:    0.010000
-0.111227    0.755180    -0.536265    -1.738091    0.353421    -58.415565    1.714613    -7.635470    7.516502    2.333163    7.274315    2.318453    -1.653106    25.478773    -1.112145    1.016761    -12.745219    -1.049632    6.544733    3.471700    8.664865    -73.722786    26.715185    -0.815160    -8.616368    -1.199528    -13.594274    -21.769318    -2.557872    1.719410    -4.775957    3.211393    4.114061    45.774895    45.435532    29.877132    -4.728460    -15.702197    32.879776    11.223406    -14.517169    -1.724138    7.579028    -28.621727    0.836072    -7.203424    11.216249    4.940009    -2.281678    3.787247    4.285696    0.000000    0.000000    0.000000    -2.258398    17.547735    5.118895    9.585192    7.368370    2.275008    -3.513568    -15.451730    1.837124    0.000000    0.000000    0.000000    
-0.118916    0.753973    -0.529351    -1.588968    0.488646    -58.590195    1.864376    -7.858693    7.653317    2.195575    7.372693    2.366300    -1.686427    25.352768    -1.117461    1.029980    -12.703579    -1.053077    6.457013    3.398273    8.706188    -73.678207    26.701998    -0.739023    -8.670873    -1.170003    -13.294649    -21.958885    -2.507460    1.681402    -4.819286    3.160151    4.042818    45.747150    45.655731    30.067356    -4.756050    -15.773525    32.852333    11.097216    -14.588780    -1.813526    7.558270    -28.548786    0.368981    -7.351833    10.138567    5.766475    -2.021603    3.984889    3.452494    0.000000    0.000000    0.000000    -2.516847    17.950918    5.410575    9.662009    7.635733    2.158979    -3.150069    -15.431697    2.400218    0.000000    0.000000    0.000000    
-0.126729    0.752890    -0.522222    -1.475004    0.577410    -58.790615    1.972631    -8.012235    7.796445    2.107642    7.436133    2.415185    -1.850528    25.327461    -1.107177    1.181459    -12.794653    -1.017545    6.362593    3.387962    8.856337    -73.619987    26.523199    -0.831881    -8.773479    -1.043779    -12.847296    -21.915934    -2.344779    1.613175    -4.868843    3.153360    4.036004    46.100113    45.381126    29.984144    -4.555059    -15.474832    32.769241    10.945704    -14.344754    -1.788644    7.471838    -28.505388    -0.050259    -7.253095    9.931404    5.060361    -2.610859    3.672674    4.259475    0.000000    0.000000    0.000000    -2.736636    18.299530    5.396399    9.656014    8.142440    1.612426    -2.594217    -15.446742    3.232742    0.000000    0.000000    0.000000    
-0.134622    0.751915    -0.514862    -1.334333    0.647209    -58.984001    2.080161    -8.212325    7.969074    1.967128    7.518927    2.476688    -1.856305    25.233643    -1.100702    1.174150    -12.750841    -1.011911    6.334430    3.377409    8.860216    -73.686234    25.501999    -0.983560    -8.814393    -0.546702    -12.068366    -22.027014    -1.798069    1.636509    -4.906520    3.113616    4.054229    46.183777    45.711723    29.930609    -4.667347    -15.536044    32.667484    11.598038    -14.395618    -1.860479    7.289110    -28.476812    -0.245631    -7.332209    10.014223    5.248241    -2.768442    3.592965    4.602005    0.000000    0.000000    0.000000    -2.985761    18.670177    5.354055    9.449885    8.559227    0.893483    -1.624919    -15.351347    4.545255    0.000000    0.000000    0.000000    
-0.142689    0.751050    -0.507285    -1.226310    0.681533    -59.153179    2.181528    -8.328993    8.128673    1.801282    7.516495    2.537680    -1.903443    25.167322    -1.073994    1.230380    -12.693330    -0.973495    6.293897    3.372490    8.959805    -73.653778    26.149977    -0.919801    -8.775225    -0.836162    -12.216933    -22.018400    -2.118255    1.758109    -4.863115    3.142675    4.009146    46.159542    46.091156    29.914116    -4.633741    -15.631529    32.592999    11.652052    -14.510566    -1.914776    7.025635    -28.451962    -0.175078    -7.233563    10.783752    4.864190    -2.846586    3.304864    4.881054    0.000000    0.000000    0.000000    -3.285084    18.898195    5.550212    9.395927    9.363967    -0.678316    -0.584082    -15.216296    6.285073    0.000000    0.000000    0.000000    
-0.150848    0.750301    -0.499460    -1.100249    0.698148    -59.332909    2.282342    -8.456799    8.279361    1.600448    7.479488    2.598406    -1.981571    24.948261    -0.991444    1.297894    -12.295361    -0.877540    6.295273    3.380437    8.997701    -73.676727    26.120449    -0.953871    -8.828837    -0.816461    -11.932370    -21.959650    -2.054262    1.619369    -4.862484    3.115982    4.148902    46.843632    45.822258    29.361464    -4.305058    -15.332276    32.481617    11.662086    -14.309376    -1.932277    6.631233    -28.407825    0.137666    -7.134865    11.767681    4.995031    -2.550989    3.322521    4.651150    0.000000    0.000000    0.000000    -3.480374    18.937189    5.601021    9.228497    10.556056    2.587673    -0.422659    -14.945195    2.961696    0.000000    0.000000    0.000000    
-0.159324    0.749653    -0.491449    -1.008442    0.706427    -59.471439    2.386992    -8.472968    8.447883    1.319654    7.053801    2.674875    -1.615998    25.571932    -1.034964    0.960291    -12.574398    -0.983126    6.443923    3.740345    8.719043    -73.817375    25.568247    -1.085035    -8.813400    -0.655483    -11.514136    -22.000683    -1.870278    1.672987    -4.622436    3.522486    4.527535    47.124622    45.718933    28.776642    -3.987649    -15.305206    32.457951    11.689814    -14.389334    -2.094762    6.215030    -28.283478    0.458831    -6.987098    13.045016    4.580150    -2.388588    3.275662    4.635094    0.000000    0.000000    0.000000    -3.727219    19.110416    5.438367    9.018484    11.553158    2.339948    0.506252    -14.547207    3.779616    0.000000    0.000000    0.000000    
-0.167897    0.749001    -0.483198    -0.890625    0.714662    -59.606087    2.477962    -8.566920    8.611674    1.114047    6.916197    2.740582    -1.617588    25.466122    -1.025702    1.005449    -12.319798    -0.962835    6.499922    3.952986    8.945993    -73.773079    25.475227    -1.471361    -8.903917    -0.567629    -11.183451    -21.918941    -1.767061    1.686725    -4.579677    3.427167    4.624172    47.845116    45.722908    28.000505    -3.585051    -15.064902    32.285774    11.471576    -14.257378    -2.031747    5.779378    -28.151487    0.782050    -6.823540    14.207756    4.455632    -1.760969    4.065148    4.098941    0.000000    0.000000    0.000000    -4.090746    19.293499    5.155878    8.861414    12.568248    2.358080    1.426337    -14.047190    4.526651    0.000000    0.000000    0.000000    
-0.176254    0.748591    -0.474905    -0.700424    0.682690    -59.683571    2.432817    -8.649045    8.711597    0.976666    6.708269    2.784686    -1.693138    25.356558    -1.048335    1.160905    -12.003640    -0.955920    6.415342    3.830498    9.014974    -73.769852    25.522884    -1.333882    -8.908822    -0.561192    -11.161230    -21.953533    -1.769259    1.735202    -4.547007    3.371878    4.608748    48.341259    46.044147    27.411385    -3.335419    -14.892985    32.114998    11.773557    -14.172641    -2.103303    5.317855    -28.037739    0.903144    -6.655498    14.494761    4.800465    -0.975750    6.623799    3.532312    0.000000    0.000000    0.000000    -4.438245    19.232941    4.437027    8.524147    13.899723    3.018448    2.370556    -13.443803    4.956596    0.000000    0.000000    0.000000    
